<svg xmlns="http://www.w3.org/2000/svg" width="32" height="32" viewBox="0 0 120 120" fill="none"><metadata><rdf:RDF xmlns:rdf="http://www.w3.org/1999/02/22-rdf-syntax-ns#" xmlns:dc="http://purl.org/dc/elements/1.1/"><rdf:Description><dc:creator>RealFaviconGenerator</dc:creator><dc:source>https://realfavicongenerator.net</dc:source></rdf:Description></rdf:RDF></metadata><g clip-path="url(#clip0_17_224)">
<rect width="120" height="120" rx="60" fill="#22C47A"></rect>
<rect width="84" height="8" transform="matrix(-1 0 0 1 102 78)" fill="#111827"></rect>
<rect x="33" y="92" width="54" height="6" fill="#111827"></rect>
<rect x="51" y="104" width="18" height="6" fill="#111827"></rect>
<path d="M59.7945 82.5C55.1918 82.5 50.9055 81.7081 46.9356 80.1242C42.9658 78.5403 39.4849 76.3284 36.4932 73.4883C33.5014 70.6482 31.1712 67.3166 29.5027 63.4935C27.8342 59.6704 27 55.4922 27 50.959C27 46.4259 27.8055 42.2477 29.4164 38.4246C31.0274 34.5468 33.3 31.2152 36.2342 28.4298C39.1685 25.5897 42.5918 23.4051 46.5041 21.8758C50.474 20.2919 54.789 19.5 59.4493 19.5C64.1096 19.5 68.2808 20.2373 71.963 21.712C75.7027 23.1866 78.8671 25.1528 81.4562 27.6105C84.0452 30.0683 85.8863 32.7991 86.9794 35.803L75.1562 41.21C74.063 38.2607 72.1356 35.8303 69.374 33.9187C66.6699 31.9525 63.3616 30.9694 59.4493 30.9694C55.6521 30.9694 52.3151 31.816 49.4384 33.5091C46.5616 35.2022 44.3178 37.5507 42.7068 40.5546C41.1534 43.5039 40.3767 46.972 40.3767 50.959C40.3767 54.946 41.211 58.4415 42.8795 61.4454C44.5479 64.4493 46.8205 66.7978 49.6973 68.4909C52.6315 70.184 55.9973 71.0306 59.7945 71.0306C62.7288 71.0306 65.4616 70.5117 67.9932 69.474C70.5822 68.3817 72.6534 66.8251 74.2068 64.8043C75.8178 62.7835 76.6233 60.3531 76.6233 57.513V52.4337L82.7507 57.3492H59.4493V46.699H90V53.171C90 58.1411 89.137 62.4831 87.411 66.197C85.6849 69.8563 83.3548 72.9148 80.4205 75.3726C77.5438 77.7757 74.2931 79.578 70.6685 80.7796C67.1014 81.9265 63.4767 82.5 59.7945 82.5Z" fill="white"></path>
</g><defs>
<clipPath id="clip0_17_224">
<rect width="120" height="120" fill="white"></rect>
</clipPath>
</defs></svg>